<?xml version="1.0" encoding="utf-8"?>
<!-- Generator: Adobe Illustrator 22.1.0, SVG Export Plug-In . SVG Version: 6.00 Build 0)  -->
<svg version="1.1" id="Layer_1" xmlns="http://www.w3.org/2000/svg" xmlns:xlink="http://www.w3.org/1999/xlink" x="0px" y="0px"
	 viewBox="0 0 24 24" style="enable-background:new 0 0 24 24;" xml:space="preserve">
<style type="text/css">
	.st0{fill:none;stroke:#000000;stroke-width:1.5;stroke-linecap:round;stroke-miterlimit:10;}
</style>
<path d="M12,21c-3.6,0-6.6-3-6.6-6.6c0-3.4,5.4-10.4,6-11.2C11.6,3.1,11.8,3,12,3s0.4,0.1,0.6,0.3c0.6,0.8,6.1,7.8,6.1,11.2
	C18.6,18.1,15.6,21,12,21z M12,4.8c-1.8,2.4-5.2,7.4-5.2,9.6c0,2.9,2.3,5.2,5.2,5.2s5.2-2.3,5.2-5.2C17.2,12.2,13.8,7.3,12,4.8z"/>
<path d="M12,18.2c-0.4,0-0.7-0.3-0.7-0.7s0.3-0.7,0.7-0.7c1.3,0,2.4-1.1,2.4-2.4c0-0.4,0.3-0.7,0.7-0.7s0.7,0.3,0.7,0.7
	C15.8,16.5,14.1,18.2,12,18.2z"/>
<line class="st0" x1="19" y1="5" x2="4" y2="19"/>
</svg>
